ply
format ascii 1.0
comment Created by Blender 2.79 (sub 0) - www.blender.org, source file: 'bubble.blend'
element vertex 162
property float x
property float y
property float z
element face 320
property list uchar uint vertex_indices
end_header
0.000000 1.000000 0.000000
0.203181 1.032050 0.147618
-0.077607 1.032050 0.238853
0.723607 1.552781 0.525725
0.609547 1.342481 0.442856
0.812729 1.497699 0.295238
-0.251147 1.032051 0.000000
-0.077607 1.032050 -0.238853
0.203181 1.032050 -0.147618
0.860698 1.748849 0.442858
-0.276388 1.552780 0.850649
-0.029639 1.497698 0.864184
-0.155215 1.748848 0.955422
-0.894426 1.552784 0.000000
-0.831051 1.497701 0.238853
-0.956626 1.748851 0.147618
-0.276388 1.552780 -0.850649
-0.483971 1.497698 -0.716565
-0.436007 1.748848 -0.864188
0.723607 1.552781 -0.525725
0.531941 1.497698 -0.681712
0.687159 1.748848 -0.681715
0.687159 1.748848 0.681715
-0.436007 1.748848 0.864188
-0.956626 1.748851 -0.147618
-0.155215 1.748848 -0.955422
0.860698 1.748849 -0.442858
0.276388 2.447220 0.850649
0.483971 2.502302 0.716565
0.232822 2.657519 0.716563
-0.723607 2.447220 0.525725
-0.531941 2.502302 0.681712
-0.609547 2.657519 0.442856
-0.723607 2.447220 -0.525725
-0.812729 2.502301 -0.295238
-0.609547 2.657519 -0.442856
0.276388 2.447220 -0.850649
0.029639 2.502302 -0.864184
0.232822 2.657519 -0.716563
0.894426 2.447216 0.000000
0.831051 2.502299 -0.238853
0.753442 2.657515 0.000000
0.251147 2.967949 0.000000
0.077607 2.967950 -0.238853
0.000000 3.000000 0.000000
0.525730 2.850652 0.000000
0.361800 2.894429 -0.262863
0.638194 2.723610 -0.262864
0.162456 2.850654 -0.499995
0.447209 2.723612 -0.525728
0.688189 2.525736 -0.499997
0.483971 2.502302 -0.716565
-0.203181 2.967950 -0.147618
-0.138197 2.894430 -0.425319
-0.052790 2.723612 -0.688185
-0.425323 2.850654 -0.309011
-0.361804 2.723612 -0.587778
-0.262869 2.525738 -0.809012
-0.531941 2.502302 -0.681712
-0.203181 2.967950 0.147618
-0.447210 2.894429 0.000000
-0.670817 2.723611 -0.162457
-0.425323 2.850654 0.309011
-0.670817 2.723611 0.162457
-0.850648 2.525736 0.000000
-0.812729 2.502301 0.295238
0.077607 2.967950 0.238853
-0.138197 2.894430 0.425319
-0.361804 2.723612 0.587778
0.162456 2.850654 0.499995
-0.052790 2.723612 0.688185
-0.262869 2.525738 0.809012
0.029639 2.502302 0.864184
0.361800 2.894429 0.262863
0.447209 2.723612 0.525728
0.638194 2.723610 0.262864
0.688189 2.525736 0.499997
0.831051 2.502299 0.238853
0.956626 2.251149 -0.147618
0.951058 2.000000 -0.309013
0.861804 2.276396 -0.425322
0.809019 2.000000 -0.587782
0.670821 2.276397 -0.688189
0.587786 2.000000 -0.809017
0.436007 2.251152 -0.864188
0.155215 2.251152 -0.955422
0.000000 2.000000 -1.000000
-0.138199 2.276397 -0.951055
-0.309016 2.000000 -0.951057
-0.447215 2.276397 -0.850649
-0.587786 2.000000 -0.809017
-0.687159 2.251152 -0.681715
-0.860698 2.251151 -0.442858
-0.951058 2.000000 -0.309013
-0.947213 2.276396 -0.162458
-1.000000 2.000001 0.000000
-0.947213 2.276397 0.162458
-0.951058 2.000000 0.309013
-0.860698 2.251151 0.442858
-0.687159 2.251152 0.681715
-0.587786 2.000000 0.809017
-0.447216 2.276397 0.850648
-0.309017 1.999999 0.951056
-0.138199 2.276397 0.951055
0.000000 2.000000 1.000000
0.155215 2.251152 0.955422
0.436007 2.251152 0.864188
0.587786 2.000000 0.809017
0.670820 2.276396 0.688190
0.809019 1.999998 0.587783
0.861804 2.276394 0.425323
0.951058 2.000000 0.309013
0.956626 2.251149 0.147618
0.309017 2.000000 -0.951056
0.447216 1.723602 -0.850648
0.138199 1.723603 -0.951055
0.262869 1.474262 -0.809012
-0.029639 1.497698 -0.864184
-0.809018 2.000000 -0.587783
-0.670819 1.723603 -0.688191
-0.861803 1.723604 -0.425324
-0.688189 1.474264 -0.499997
-0.831051 1.497701 -0.238853
-0.809018 2.000000 0.587783
-0.861803 1.723604 0.425324
-0.670819 1.723603 0.688191
-0.688189 1.474264 0.499997
-0.483971 1.497698 0.716565
0.309017 2.000000 0.951056
0.138199 1.723603 0.951055
0.447216 1.723602 0.850648
0.262869 1.474262 0.809012
0.531941 1.497698 0.681712
1.000000 2.000000 0.000000
0.947213 1.723604 0.162458
0.947213 1.723604 -0.162458
0.850648 1.474264 0.000000
0.812729 1.497699 -0.295238
0.609547 1.342481 -0.442856
0.425323 1.149346 -0.309011
0.361803 1.276388 -0.587779
0.138197 1.105571 -0.425321
0.052789 1.276389 -0.688186
-0.162456 1.149346 -0.499995
-0.232822 1.342481 -0.716563
-0.447211 1.276388 -0.525727
-0.361801 1.105571 -0.262863
-0.638195 1.276391 -0.262863
-0.525730 1.149348 0.000000
-0.753442 1.342485 0.000000
-0.638195 1.276391 0.262864
-0.361801 1.105572 0.262864
-0.447211 1.276390 0.525729
-0.162456 1.149346 0.499995
-0.232822 1.342481 0.716563
0.670817 1.276389 -0.162457
0.670818 1.276390 0.162458
0.447211 1.105572 0.000001
0.425323 1.149346 0.309011
0.052790 1.276388 0.688185
0.138199 1.105571 0.425321
0.361805 1.276389 0.587779
3 0 1 2
3 3 4 5
3 0 2 6
3 0 6 7
3 0 7 8
3 3 5 9
3 10 11 12
3 13 14 15
3 16 17 18
3 19 20 21
3 3 9 22
3 10 12 23
3 13 15 24
3 16 18 25
3 19 21 26
3 27 28 29
3 30 31 32
3 33 34 35
3 36 37 38
3 39 40 41
3 42 43 44
3 45 46 42
3 41 47 45
3 42 46 43
3 46 48 43
3 45 47 46
3 47 49 46
3 46 49 48
3 49 38 48
3 41 40 47
3 40 50 47
3 47 50 49
3 50 51 49
3 49 51 38
3 51 36 38
3 43 52 44
3 48 53 43
3 38 54 48
3 43 53 52
3 53 55 52
3 48 54 53
3 54 56 53
3 53 56 55
3 56 35 55
3 38 37 54
3 37 57 54
3 54 57 56
3 57 58 56
3 56 58 35
3 58 33 35
3 52 59 44
3 55 60 52
3 35 61 55
3 52 60 59
3 60 62 59
3 55 61 60
3 61 63 60
3 60 63 62
3 63 32 62
3 35 34 61
3 34 64 61
3 61 64 63
3 64 65 63
3 63 65 32
3 65 30 32
3 59 66 44
3 62 67 59
3 32 68 62
3 59 67 66
3 67 69 66
3 62 68 67
3 68 70 67
3 67 70 69
3 70 29 69
3 32 31 68
3 31 71 68
3 68 71 70
3 71 72 70
3 70 72 29
3 72 27 29
3 66 42 44
3 69 73 66
3 29 74 69
3 66 73 42
3 73 45 42
3 69 74 73
3 74 75 73
3 73 75 45
3 75 41 45
3 29 28 74
3 28 76 74
3 74 76 75
3 76 77 75
3 75 77 41
3 77 39 41
3 78 40 39
3 79 80 78
3 26 81 79
3 78 80 40
3 80 50 40
3 79 81 80
3 81 82 80
3 80 82 50
3 82 51 50
3 26 21 81
3 21 83 81
3 81 83 82
3 83 84 82
3 82 84 51
3 84 36 51
3 85 37 36
3 86 87 85
3 25 88 86
3 85 87 37
3 87 57 37
3 86 88 87
3 88 89 87
3 87 89 57
3 89 58 57
3 25 18 88
3 18 90 88
3 88 90 89
3 90 91 89
3 89 91 58
3 91 33 58
3 92 34 33
3 93 94 92
3 24 95 93
3 92 94 34
3 94 64 34
3 93 95 94
3 95 96 94
3 94 96 64
3 96 65 64
3 24 15 95
3 15 97 95
3 95 97 96
3 97 98 96
3 96 98 65
3 98 30 65
3 99 31 30
3 100 101 99
3 23 102 100
3 99 101 31
3 101 71 31
3 100 102 101
3 102 103 101
3 101 103 71
3 103 72 71
3 23 12 102
3 12 104 102
3 102 104 103
3 104 105 103
3 103 105 72
3 105 27 72
3 106 28 27
3 107 108 106
3 22 109 107
3 106 108 28
3 108 76 28
3 107 109 108
3 109 110 108
3 108 110 76
3 110 77 76
3 22 9 109
3 9 111 109
3 109 111 110
3 111 112 110
3 110 112 77
3 112 39 77
3 84 85 36
3 83 113 84
3 21 114 83
3 84 113 85
3 113 86 85
3 83 114 113
3 114 115 113
3 113 115 86
3 115 25 86
3 21 20 114
3 20 116 114
3 114 116 115
3 116 117 115
3 115 117 25
3 117 16 25
3 91 92 33
3 90 118 91
3 18 119 90
3 91 118 92
3 118 93 92
3 90 119 118
3 119 120 118
3 118 120 93
3 120 24 93
3 18 17 119
3 17 121 119
3 119 121 120
3 121 122 120
3 120 122 24
3 122 13 24
3 98 99 30
3 97 123 98
3 15 124 97
3 98 123 99
3 123 100 99
3 97 124 123
3 124 125 123
3 123 125 100
3 125 23 100
3 15 14 124
3 14 126 124
3 124 126 125
3 126 127 125
3 125 127 23
3 127 10 23
3 105 106 27
3 104 128 105
3 12 129 104
3 105 128 106
3 128 107 106
3 104 129 128
3 129 130 128
3 128 130 107
3 130 22 107
3 12 11 129
3 11 131 129
3 129 131 130
3 131 132 130
3 130 132 22
3 132 3 22
3 112 78 39
3 111 133 112
3 9 134 111
3 112 133 78
3 133 79 78
3 111 134 133
3 134 135 133
3 133 135 79
3 135 26 79
3 9 5 134
3 5 136 134
3 134 136 135
3 136 137 135
3 135 137 26
3 137 19 26
3 138 20 19
3 139 140 138
3 8 141 139
3 138 140 20
3 140 116 20
3 139 141 140
3 141 142 140
3 140 142 116
3 142 117 116
3 8 7 141
3 7 143 141
3 141 143 142
3 143 144 142
3 142 144 117
3 144 16 117
3 144 17 16
3 143 145 144
3 7 146 143
3 144 145 17
3 145 121 17
3 143 146 145
3 146 147 145
3 145 147 121
3 147 122 121
3 7 6 146
3 6 148 146
3 146 148 147
3 148 149 147
3 147 149 122
3 149 13 122
3 149 14 13
3 148 150 149
3 6 151 148
3 149 150 14
3 150 126 14
3 148 151 150
3 151 152 150
3 150 152 126
3 152 127 126
3 6 2 151
3 2 153 151
3 151 153 152
3 153 154 152
3 152 154 127
3 154 10 127
3 137 138 19
3 136 155 137
3 5 156 136
3 137 155 138
3 155 139 138
3 136 156 155
3 156 157 155
3 155 157 139
3 157 8 139
3 5 4 156
3 4 158 156
3 156 158 157
3 158 1 157
3 157 1 8
3 1 0 8
3 154 11 10
3 153 159 154
3 2 160 153
3 154 159 11
3 159 131 11
3 153 160 159
3 160 161 159
3 159 161 131
3 161 132 131
3 2 1 160
3 1 158 160
3 160 158 161
3 158 4 161
3 161 4 132
3 4 3 132
