ply
format ascii 1.0
comment Created by Blender 2.79 (sub 0) - www.blender.org, source file: 'bubble.blend'
element vertex 195
property float x
property float y
property float z
property uchar red
property uchar green
property uchar blue
element face 361
property list uchar uint vertex_indices
end_header
-711.754150 0.000000 711.754150 114 237 133
711.754150 0.000000 711.754150 126 237 137
711.754150 0.000000 -711.754150 114 237 133
-711.754150 0.000000 -711.754150 180 232 161
0.000001 107.993759 0.000001 151 231 195
54.067719 89.008682 39.282043 151 231 195
-20.651619 89.008705 63.560226 151 231 195
91.986153 37.723396 66.831062 200 231 196
108.135773 47.704529 -0.000009 151 231 195
-66.831642 89.008369 0.000007 151 231 195
-20.651625 89.008705 -63.560226 151 231 195
54.067719 89.008682 -39.282043 151 231 195
120.900040 -2.277175 39.282188 220 231 227
-35.134895 37.723434 108.135941 216 216 201
33.416328 47.704746 102.842903 200 216 206
0.000012 -2.277175 127.121651 246 196 220
-113.700943 37.722904 0.000011 175 231 195
-87.483772 47.704567 63.560455 199 231 195
-120.900040 -2.277175 39.282211 225 231 222
-35.134907 37.723434 -108.135941 231 241 251
-87.483772 47.704567 -63.560429 151 231 195
-74.720268 -2.277175 -102.843529 192 231 255
91.986153 37.723396 -66.831085 151 231 195
33.416313 47.704746 -102.842903 151 231 195
74.720268 -2.277175 -102.843552 192 231 255
74.720268 -2.277175 102.843529 232 213 222
-74.720268 -2.277175 102.843552 231 203 228
-120.900040 -2.277175 -39.282188 192 231 255
-0.000011 -2.277175 -127.121651 192 231 255
120.900040 -2.277175 -39.282211 192 231 255
108.135773 47.704529 -0.000009 152 231 196
108.135773 47.704529 -0.000009 152 231 197
91.986153 37.723396 66.831062 200 231 195
-34.675533 32.797218 -106.176231 255 255 255
-33.942051 32.912922 -105.643333 255 255 255
-34.955692 32.912922 -105.313965 255 255 255
-32.063309 34.792763 -104.278358 255 255 255
-32.475071 34.033581 -104.577522 255 255 255
-31.741579 34.593918 -105.110428 255 255 255
-35.582172 32.912926 -106.176231 255 255 255
-34.955692 32.912922 -107.038490 255 255 255
-33.942051 32.912922 -106.709122 255 255 255
-31.568415 35.500568 -104.577522 255 255 255
-35.673294 34.792763 -103.105385 255 255 255
-34.782532 34.593918 -103.056526 255 255 255
-35.235859 35.500561 -102.727158 255 255 255
-37.904411 34.792782 -106.176231 255 255 255
-37.675625 34.593925 -105.313965 255 255 255
-38.128952 35.500568 -105.643318 255 255 255
-35.673294 34.792763 -109.247086 255 255 255
-36.422668 34.593918 -108.763039 255 255 255
-36.249516 35.500561 -109.295959 255 255 255
-32.063309 34.792763 -108.074104 255 255 255
-32.755226 34.593918 -108.637215 255 255 255
-32.194889 35.500561 -108.637215 255 255 255
-32.194889 35.500561 -103.715248 255 255 255
-36.249516 35.500561 -103.056511 255 255 255
-38.128952 35.500568 -106.709137 255 255 255
-35.235859 35.500561 -109.625313 255 255 255
-31.568415 35.500568 -107.774940 255 255 255
-33.677769 38.021683 -103.105385 255 255 255
-32.928394 38.220531 -103.589439 255 255 255
-33.835045 38.780865 -103.589447 255 255 255
-37.287758 38.021683 -104.278358 255 255 255
-36.595840 38.220531 -103.715248 255 255 255
-36.875996 38.780865 -104.577522 255 255 255
-37.287758 38.021683 -108.074104 255 255 255
-37.609486 38.220524 -107.242035 255 255 255
-36.875996 38.780865 -107.774940 255 255 255
-33.677769 38.021683 -109.247086 255 255 255
-34.568535 38.220531 -109.295944 255 255 255
-33.835045 38.780865 -108.763023 255 255 255
-31.446653 38.021667 -106.176231 255 255 255
-31.675440 38.220516 -107.038490 255 255 255
-31.955608 38.780849 -106.176231 255 255 255
-33.768890 39.901516 -106.176231 255 255 255
-34.395370 39.901516 -107.038490 255 255 255
-34.675533 40.017216 -106.176231 255 255 255
-32.777649 39.478073 -106.176231 255 255 255
-33.369431 39.636105 -107.125168 255 255 255
-32.371655 39.019451 -107.125168 255 255 255
-34.089066 39.478081 -107.981209 255 255 255
-33.061108 39.019459 -108.074104 255 255 255
-32.191166 38.305126 -107.981216 255 255 255
-32.928394 38.220531 -108.763039 255 255 255
-35.409016 39.901516 -106.709122 255 255 255
-35.174423 39.636112 -107.711624 255 255 255
-34.866104 39.019459 -108.660576 255 255 255
-36.210945 39.478081 -107.291763 255 255 255
-35.981644 39.019459 -108.298111 255 255 255
-35.624489 38.305130 -109.096771 255 255 255
-36.595840 38.220531 -108.637215 255 255 255
-35.409016 39.901516 -105.643333 255 255 255
-36.289959 39.636105 -106.176231 255 255 255
-37.097179 39.019451 -106.762703 255 255 255
-36.210945 39.478081 -105.060699 255 255 255
-37.097179 39.019451 -105.589752 255 255 255
-37.746368 38.305126 -106.176231 255 255 255
-37.609486 38.220524 -105.110428 255 255 255
-34.395370 39.901516 -105.313965 255 255 255
-35.174423 39.636112 -104.640839 255 255 255
-35.981644 39.019459 -104.054352 255 255 255
-34.089066 39.478081 -104.371262 255 255 255
-34.866104 39.019459 -103.691887 255 255 255
-35.624489 38.305130 -103.255699 255 255 255
-34.568535 38.220531 -103.056526 255 255 255
-33.369431 39.636105 -105.227295 255 255 255
-33.061108 39.019459 -104.278358 255 255 255
-32.371655 39.019451 -105.227295 255 255 255
-32.191166 38.305126 -104.371246 255 255 255
-31.675440 38.220516 -105.313965 255 255 255
-31.222115 37.313869 -106.709137 255 255 255
-31.242210 36.407219 -107.291763 255 255 255
-31.564419 37.405010 -107.711639 255 255 255
-31.754974 36.407219 -108.298126 255 255 255
-32.253868 37.405014 -108.660591 255 255 255
-32.553627 36.407219 -109.096786 255 255 255
-33.101547 37.313881 -109.295959 255 255 255
-34.115204 37.313873 -109.625313 255 255 255
-34.675533 36.407219 -109.786240 255 255 255
-35.174427 37.405014 -109.609543 255 255 255
-35.791080 36.407219 -109.609543 255 255 255
-36.289978 37.405014 -109.247086 255 255 255
-36.797440 36.407219 -109.096786 255 255 255
-37.156174 37.313881 -108.637215 255 255 255
-37.782650 37.313873 -107.774940 255 255 255
-38.108852 36.407219 -107.291763 255 255 255
-38.094971 37.405010 -106.762703 255 255 255
-38.285534 36.407227 -106.176231 255 255 255
-38.094971 37.405010 -105.589752 255 255 255
-38.108852 36.407219 -105.060699 255 255 255
-37.782650 37.313873 -104.577522 255 255 255
-37.156174 37.313881 -103.715248 255 255 255
-36.797440 36.407219 -103.255684 255 255 255
-36.289982 37.405014 -103.105400 255 255 255
-35.791084 36.407219 -102.742928 255 255 255
-35.174435 37.405014 -102.742928 255 255 255
-34.675533 36.407219 -102.566238 255 255 255
-34.115204 37.313873 -102.727158 255 255 255
-33.101547 37.313881 -103.056511 255 255 255
-32.553627 36.407219 -103.255684 255 255 255
-32.253872 37.405010 -103.691872 255 255 255
-31.754974 36.407211 -104.054337 255 255 255
-31.564423 37.405003 -104.640823 255 255 255
-31.242210 36.407219 -105.060699 255 255 255
-31.222115 37.313869 -105.643318 255 255 255
-33.559978 36.407219 -109.609543 255 255 255
-33.061085 35.409420 -109.247070 255 255 255
-34.176632 35.409428 -109.609543 255 255 255
-33.726574 34.509304 -109.096771 255 255 255
-34.782532 34.593918 -109.295944 255 255 255
-37.596088 36.407219 -108.298126 255 255 255
-37.097187 35.409428 -108.660606 255 255 255
-37.786640 35.409428 -107.711655 255 255 255
-37.159897 34.509312 -107.981216 255 255 255
-37.675625 34.593925 -107.038490 255 255 255
-37.596088 36.407219 -104.054337 255 255 255
-37.786640 35.409428 -104.640808 255 255 255
-37.097187 35.409428 -103.691864 255 255 255
-37.159897 34.509312 -104.371246 255 255 255
-36.422668 34.593918 -103.589439 255 255 255
-33.559978 36.407219 -102.742928 255 255 255
-34.176632 35.409428 -102.742928 255 255 255
-33.061085 35.409420 -103.105400 255 255 255
-33.726574 34.509304 -103.255699 255 255 255
-32.755226 34.593918 -103.715248 255 255 255
-31.065533 36.407219 -106.176231 255 255 255
-31.256096 35.409428 -105.589752 255 255 255
-31.256096 35.409428 -106.762703 255 255 255
-31.604692 34.509312 -106.176231 255 255 255
-31.741579 34.593918 -107.242035 255 255 255
-32.475071 34.033581 -107.774940 255 255 255
-33.140118 33.336357 -107.291763 255 255 255
-33.369423 33.794983 -108.298111 255 255 255
-34.176643 33.178329 -107.711639 255 255 255
-34.484962 33.794983 -108.660576 255 255 255
-35.261997 33.336357 -107.981209 255 255 255
-35.516018 34.033573 -108.763023 255 255 255
-36.289963 33.794983 -108.074104 255 255 255
-35.981632 33.178329 -107.125168 255 255 255
-36.979416 33.794991 -107.125168 255 255 255
-36.573414 33.336369 -106.176231 255 255 255
-37.395458 34.033592 -106.176231 255 255 255
-36.979412 33.794991 -105.227295 255 255 255
-35.981636 33.178329 -105.227295 255 255 255
-36.289963 33.794983 -104.278358 255 255 255
-35.261997 33.336357 -104.371262 255 255 255
-35.516018 34.033573 -103.589447 255 255 255
-32.253883 33.794983 -106.762703 255 255 255
-32.253883 33.794991 -105.589752 255 255 255
-33.061100 33.178329 -106.176231 255 255 255
-33.140118 33.336357 -105.060699 255 255 255
-34.484959 33.794983 -103.691887 255 255 255
-34.176636 33.178329 -104.640823 255 255 255
-33.369419 33.794983 -104.054352 255 255 255
4 0 1 2 3
3 4 5 6
3 7 5 8
3 4 6 9
3 4 9 10
3 4 10 11
3 7 8 12
3 13 14 15
3 16 17 18
3 19 20 21
3 22 23 24
3 7 12 25
3 13 15 26
3 16 18 27
3 19 21 28
3 22 24 29
3 24 23 28
3 23 19 28
3 21 20 27
3 20 16 27
3 18 17 26
3 17 13 26
3 15 14 25
3 14 7 25
3 12 30 29
3 30 22 29
3 11 23 22
3 11 10 23
3 10 19 23
3 10 20 19
3 10 9 20
3 9 16 20
3 9 17 16
3 9 6 17
3 6 13 17
3 31 11 22
3 8 5 11
3 5 4 11
3 6 14 13
3 6 5 14
3 5 32 14
3 33 34 35
3 36 37 38
3 33 35 39
3 33 39 40
3 33 40 41
3 36 38 42
3 43 44 45
3 46 47 48
3 49 50 51
3 52 53 54
3 36 42 55
3 43 45 56
3 46 48 57
3 49 51 58
3 52 54 59
3 60 61 62
3 63 64 65
3 66 67 68
3 69 70 71
3 72 73 74
3 75 76 77
3 78 79 75
3 74 80 78
3 75 79 76
3 79 81 76
3 78 80 79
3 80 82 79
3 79 82 81
3 82 71 81
3 74 73 80
3 73 83 80
3 80 83 82
3 83 84 82
3 82 84 71
3 84 69 71
3 76 85 77
3 81 86 76
3 71 87 81
3 76 86 85
3 86 88 85
3 81 87 86
3 87 89 86
3 86 89 88
3 89 68 88
3 71 70 87
3 70 90 87
3 87 90 89
3 90 91 89
3 89 91 68
3 91 66 68
3 85 92 77
3 88 93 85
3 68 94 88
3 85 93 92
3 93 95 92
3 88 94 93
3 94 96 93
3 93 96 95
3 96 65 95
3 68 67 94
3 67 97 94
3 94 97 96
3 97 98 96
3 96 98 65
3 98 63 65
3 92 99 77
3 95 100 92
3 65 101 95
3 92 100 99
3 100 102 99
3 95 101 100
3 101 103 100
3 100 103 102
3 103 62 102
3 65 64 101
3 64 104 101
3 101 104 103
3 104 105 103
3 103 105 62
3 105 60 62
3 99 75 77
3 102 106 99
3 62 107 102
3 99 106 75
3 106 78 75
3 102 107 106
3 107 108 106
3 106 108 78
3 108 74 78
3 62 61 107
3 61 109 107
3 107 109 108
3 109 110 108
3 108 110 74
3 110 72 74
3 111 73 72
3 112 113 111
3 59 114 112
3 111 113 73
3 113 83 73
3 112 114 113
3 114 115 113
3 113 115 83
3 115 84 83
3 59 54 114
3 54 116 114
3 114 116 115
3 116 117 115
3 115 117 84
3 117 69 84
3 118 70 69
3 119 120 118
3 58 121 119
3 118 120 70
3 120 90 70
3 119 121 120
3 121 122 120
3 120 122 90
3 122 91 90
3 58 51 121
3 51 123 121
3 121 123 122
3 123 124 122
3 122 124 91
3 124 66 91
3 125 67 66
3 126 127 125
3 57 128 126
3 125 127 67
3 127 97 67
3 126 128 127
3 128 129 127
3 127 129 97
3 129 98 97
3 57 48 128
3 48 130 128
3 128 130 129
3 130 131 129
3 129 131 98
3 131 63 98
3 132 64 63
3 133 134 132
3 56 135 133
3 132 134 64
3 134 104 64
3 133 135 134
3 135 136 134
3 134 136 104
3 136 105 104
3 56 45 135
3 45 137 135
3 135 137 136
3 137 138 136
3 136 138 105
3 138 60 105
3 139 61 60
3 140 141 139
3 55 142 140
3 139 141 61
3 141 109 61
3 140 142 141
3 142 143 141
3 141 143 109
3 143 110 109
3 55 42 142
3 42 144 142
3 142 144 143
3 144 145 143
3 143 145 110
3 145 72 110
3 117 118 69
3 116 146 117
3 54 147 116
3 117 146 118
3 146 119 118
3 116 147 146
3 147 148 146
3 146 148 119
3 148 58 119
3 54 53 147
3 53 149 147
3 147 149 148
3 149 150 148
3 148 150 58
3 150 49 58
3 124 125 66
3 123 151 124
3 51 152 123
3 124 151 125
3 151 126 125
3 123 152 151
3 152 153 151
3 151 153 126
3 153 57 126
3 51 50 152
3 50 154 152
3 152 154 153
3 154 155 153
3 153 155 57
3 155 46 57
3 131 132 63
3 130 156 131
3 48 157 130
3 131 156 132
3 156 133 132
3 130 157 156
3 157 158 156
3 156 158 133
3 158 56 133
3 48 47 157
3 47 159 157
3 157 159 158
3 159 160 158
3 158 160 56
3 160 43 56
3 138 139 60
3 137 161 138
3 45 162 137
3 138 161 139
3 161 140 139
3 137 162 161
3 162 163 161
3 161 163 140
3 163 55 140
3 45 44 162
3 44 164 162
3 162 164 163
3 164 165 163
3 163 165 55
3 165 36 55
3 145 111 72
3 144 166 145
3 42 167 144
3 145 166 111
3 166 112 111
3 144 167 166
3 167 168 166
3 166 168 112
3 168 59 112
3 42 38 167
3 38 169 167
3 167 169 168
3 169 170 168
3 168 170 59
3 170 52 59
3 171 53 52
3 172 173 171
3 41 174 172
3 171 173 53
3 173 149 53
3 172 174 173
3 174 175 173
3 173 175 149
3 175 150 149
3 41 40 174
3 40 176 174
3 174 176 175
3 176 177 175
3 175 177 150
3 177 49 150
3 177 50 49
3 176 178 177
3 40 179 176
3 177 178 50
3 178 154 50
3 176 179 178
3 179 180 178
3 178 180 154
3 180 155 154
3 40 39 179
3 39 181 179
3 179 181 180
3 181 182 180
3 180 182 155
3 182 46 155
3 182 47 46
3 181 183 182
3 39 184 181
3 182 183 47
3 183 159 47
3 181 184 183
3 184 185 183
3 183 185 159
3 185 160 159
3 39 35 184
3 35 186 184
3 184 186 185
3 186 187 185
3 185 187 160
3 187 43 160
3 170 171 52
3 169 188 170
3 38 189 169
3 170 188 171
3 188 172 171
3 169 189 188
3 189 190 188
3 188 190 172
3 190 41 172
3 38 37 189
3 37 191 189
3 189 191 190
3 191 34 190
3 190 34 41
3 34 33 41
3 187 44 43
3 186 192 187
3 35 193 186
3 187 192 44
3 192 164 44
3 186 193 192
3 193 194 192
3 192 194 164
3 194 165 164
3 35 34 193
3 34 191 193
3 193 191 194
3 191 37 194
3 194 37 165
3 37 36 165
