ply
format ascii 1.0
comment Created by Blender 2.79 (sub 0) - www.blender.org, source file: 'bubble.blend'
element vertex 710
property float x
property float y
property float z
property uchar red
property uchar green
property uchar blue
element face 973
property list uchar uint vertex_indices
end_header
390.698364 -48.480003 -340.573212 132 236 141
467.138489 -43.557156 -339.346588 131 236 140
469.725677 -62.396023 -417.145538 131 236 140
384.111053 -71.935760 -418.573090 132 236 141
0.000003 583.906738 0.000004 151 231 195
292.336395 481.257172 212.392380 152 231 195
-111.660339 481.257324 343.661041 158 231 195
497.355927 203.964981 361.345917 200 231 196
584.674622 257.931519 -0.000047 170 234 211
-361.349121 481.255463 0.000035 163 234 205
-110.884529 482.127075 -342.796661 151 231 195
292.336395 481.257172 -212.392380 151 231 195
653.689148 -2.982201 212.393143 201 234 216
-189.969330 203.965195 584.675476 211 216 205
180.677277 257.932709 556.056824 200 216 206
0.000063 -2.982201 687.328552 246 196 220
-614.764709 203.962326 0.000058 184 231 208
-473.012207 257.931732 343.662262 199 231 204
-653.689148 -2.982201 212.393280 225 231 222
-403.398987 -4.007098 -556.833740 200 253 244
-189.969406 203.965195 -584.675476 253 252 229
-471.153809 97.927612 -403.784210 195 249 240
497.355927 203.964981 -361.346100 170 234 225
180.367432 258.346680 -556.725586 170 238 216
404.001770 -2.982201 -556.060364 199 253 243
653.689148 -2.982201 212.393143 211 232 221
404.001770 -2.982201 556.060242 232 213 222
-404.001770 -2.982201 556.060364 231 203 228
-653.689148 -2.982201 -212.393143 188 252 232
0.406706 -2.750403 -687.140076 200 253 244
-214.321808 -63.568821 -651.313477 200 253 244
653.689148 -2.982201 -212.393280 174 234 223
180.036636 92.253532 -623.479187 185 246 230
-459.482147 255.559692 -356.489655 188 243 227
653.689148 -2.982201 212.393143 206 233 218
71.174332 397.947205 -433.905029 161 235 206
-315.219086 393.580658 -320.434875 184 238 219
-187.485626 177.329865 -574.079651 255 255 255
-183.519806 177.955444 -571.198303 255 255 255
-189.000397 177.955444 -569.417542 255 255 255
-173.361710 188.119476 -563.818176 255 255 255
-175.588043 184.014679 -565.435669 255 255 255
-171.622162 187.044357 -568.317017 255 255 255
-192.387680 177.955475 -574.079651 255 255 255
-189.000397 177.955444 -578.741760 255 255 255
-183.519806 177.955444 -576.960876 255 255 255
-170.685883 191.946487 -565.435669 255 255 255
-192.880371 188.119476 -557.476074 255 255 255
-188.064148 187.044357 -557.211853 255 255 255
-190.515244 191.946442 -555.431030 255 255 255
-204.943695 188.119583 -574.079651 255 255 255
-203.706711 187.044388 -569.417542 255 255 255
-206.157776 191.946487 -571.198242 255 255 255
-192.880371 188.119476 -590.683289 255 255 255
-196.932144 187.044357 -588.066162 255 255 255
-195.995941 191.946442 -590.947571 255 255 255
-173.361710 188.119476 -584.341187 255 255 255
-177.102814 187.044357 -587.385864 255 255 255
-174.073135 191.946442 -587.385864 255 255 255
-174.073135 191.946442 -560.773499 255 255 255
-195.995941 191.946442 -557.211792 255 255 255
-206.157776 191.946487 -576.960999 255 255 255
-190.515244 191.946442 -592.728333 255 255 255
-170.685883 191.946487 -582.723633 255 255 255
-182.090881 205.577774 -557.476074 255 255 255
-178.039108 206.652924 -560.093262 255 255 255
-182.941238 209.682556 -560.093323 255 255 255
-201.609528 205.577774 -563.818176 255 255 255
-197.868454 206.652924 -560.773499 255 255 255
-199.383209 209.682556 -565.435669 255 255 255
-201.609528 205.577774 -584.341187 255 255 255
-203.349075 206.652893 -579.842285 255 255 255
-199.383209 209.682556 -582.723633 255 255 255
-182.090881 205.577774 -590.683289 255 255 255
-186.907089 206.652924 -590.947449 255 255 255
-182.941238 209.682556 -588.066040 255 255 255
-170.027542 205.577713 -574.079651 255 255 255
-171.264557 206.652863 -578.741760 255 255 255
-172.779388 209.682495 -574.079651 255 255 255
-182.583557 215.741760 -574.079651 255 255 255
-185.970840 215.741760 -578.741760 255 255 255
-187.485626 216.367355 -574.079651 255 255 255
-177.224045 213.452286 -574.079651 255 255 255
-180.423721 214.306732 -579.210388 255 255 255
-175.028885 210.972580 -579.210388 255 255 255
-184.314682 213.452316 -583.838867 255 255 255
-178.756668 210.972610 -584.341187 255 255 255
-174.053024 207.110321 -583.838928 255 255 255
-178.039108 206.652924 -588.066162 255 255 255
-191.451462 215.741760 -576.960876 255 255 255
-190.183060 214.306763 -582.381348 255 255 255
-188.516022 210.972610 -587.512146 255 255 255
-195.787384 213.452316 -580.111145 255 255 255
-194.547577 210.972610 -585.552368 255 255 255
-192.616486 207.110352 -589.870605 255 255 255
-197.868454 206.652924 -587.385864 255 255 255
-191.451462 215.741760 -571.198303 255 255 255
-196.214600 214.306732 -574.079651 255 255 255
-200.579132 210.972580 -577.250671 255 255 255
-195.787384 213.452316 -568.048096 255 255 255
-200.579132 210.972580 -570.908630 255 255 255
-204.089203 207.110321 -574.079651 255 255 255
-203.349075 206.652893 -568.317017 255 255 255
-185.970840 215.741760 -569.417542 255 255 255
-190.183060 214.306763 -565.778015 255 255 255
-194.547577 210.972610 -562.606934 255 255 255
-184.314682 213.452316 -564.320374 255 255 255
-188.516022 210.972610 -560.647156 255 255 255
-192.616486 207.110352 -558.288757 255 255 255
-186.907089 206.652924 -557.211853 255 255 255
-180.423721 214.306732 -568.948914 255 255 255
-178.756668 210.972610 -563.818176 255 255 255
-175.028885 210.972580 -568.948914 255 255 255
-174.053024 207.110321 -564.320312 255 255 255
-171.264557 206.652863 -569.417542 255 255 255
-168.813477 201.750732 -576.960999 255 255 255
-168.922150 196.848602 -580.111145 255 255 255
-170.664276 202.243515 -582.381409 255 255 255
-171.694595 196.848602 -585.552429 255 255 255
-174.392044 202.243561 -587.512268 255 255 255
-176.012802 196.848602 -589.870667 255 255 255
-178.975311 201.750809 -590.947571 255 255 255
-184.456024 201.750763 -592.728333 255 255 255
-187.485626 196.848602 -593.598450 255 255 255
-190.183075 202.243561 -592.643066 255 255 255
-193.517242 196.848602 -592.643066 255 255 255
-196.214722 202.243561 -590.683289 255 255 255
-198.958481 196.848602 -589.870667 255 255 255
-200.898102 201.750809 -587.385864 255 255 255
-204.285370 201.750763 -582.723633 255 255 255
-206.049118 196.848602 -580.111145 255 255 255
-205.974045 202.243515 -577.250671 255 255 255
-207.004395 196.848648 -574.079651 255 255 255
-205.974045 202.243515 -570.908630 255 255 255
-206.049118 196.848602 -568.048096 255 255 255
-204.285370 201.750763 -565.435669 255 255 255
-200.898102 201.750809 -560.773499 255 255 255
-198.958481 196.848602 -558.288696 255 255 255
-196.214722 202.243561 -557.476135 255 255 255
-193.517258 196.848602 -555.516296 255 255 255
-190.183121 202.243561 -555.516296 255 255 255
-187.485626 196.848602 -554.560974 255 255 255
-184.456024 201.750763 -555.431030 255 255 255
-178.975311 201.750809 -557.211792 255 255 255
-176.012802 196.848602 -558.288696 255 255 255
-174.392059 202.243515 -560.647095 255 255 255
-171.694595 196.848572 -562.606873 255 255 255
-170.664291 202.243484 -565.777954 255 255 255
-168.922150 196.848602 -568.048096 255 255 255
-168.813477 201.750732 -571.198242 255 255 255
-181.453995 196.848602 -592.643066 255 255 255
-178.756531 191.453659 -590.683228 255 255 255
-184.788147 191.453705 -592.643066 255 255 255
-182.354752 186.586868 -589.870605 255 255 255
-188.064148 187.044357 -590.947449 255 255 255
-203.276672 196.848602 -585.552429 255 255 255
-200.579178 191.453705 -587.512268 255 255 255
-204.306961 191.453705 -582.381470 255 255 255
-200.918228 186.586899 -583.838928 255 255 255
-203.706711 187.044388 -578.741760 255 255 255
-203.276672 196.848602 -562.606873 255 255 255
-204.306961 191.453705 -565.777832 255 255 255
-200.579178 191.453705 -560.647034 255 255 255
-200.918228 186.586899 -564.320312 255 255 255
-196.932144 187.044357 -560.093262 255 255 255
-181.453995 196.848602 -555.516296 255 255 255
-184.788147 191.453705 -555.516296 255 255 255
-178.756531 191.453659 -557.476135 255 255 255
-182.354752 186.586868 -558.288757 255 255 255
-177.102814 187.044357 -560.773499 255 255 255
-167.966873 196.848602 -574.079651 255 255 255
-168.997223 191.453705 -570.908630 255 255 255
-168.997223 191.453705 -577.250671 255 255 255
-170.882050 186.586899 -574.079651 255 255 255
-171.622162 187.044357 -579.842285 255 255 255
-175.588043 184.014679 -582.723633 255 255 255
-179.183868 180.244904 -580.111145 255 255 255
-180.423676 182.724640 -585.552368 255 255 255
-184.788177 179.390488 -582.381409 255 255 255
-186.455246 182.724640 -587.512146 255 255 255
-190.656540 180.244904 -583.838867 255 255 255
-192.030029 184.014664 -588.066040 255 255 255
-196.214615 182.724640 -584.341187 255 255 255
-194.547516 179.390488 -579.210388 255 255 255
-199.942398 182.724655 -579.210388 255 255 255
-197.747208 180.244965 -574.079651 255 255 255
-202.191864 184.014755 -574.079651 255 255 255
-199.942383 182.724655 -568.948914 255 255 255
-194.547546 179.390488 -568.948914 255 255 255
-196.214615 182.724640 -563.818176 255 255 255
-190.656540 180.244904 -564.320374 255 255 255
-192.030029 184.014664 -560.093323 255 255 255
-174.392120 182.724640 -577.250671 255 255 255
-174.392120 182.724655 -570.908630 255 255 255
-178.756622 179.390488 -574.079651 255 255 255
-179.183868 180.244904 -568.048096 255 255 255
-186.455215 182.724640 -560.647156 255 255 255
-184.788177 179.390488 -565.777954 255 255 255
-180.423676 182.724640 -562.606934 255 255 255
-460.301331 -79.809952 -334.144623 144 235 145
-457.950470 -75.937836 -418.875671 145 235 146
-575.854553 -77.090347 -477.276520 162 234 153
-376.183441 1.726285 510.818634 131 236 140
-460.142670 -2.518130 507.393280 131 236 140
-711.754150 15.100988 711.754150 114 237 133
465.975189 0.682480 426.073944 127 236 138
466.344208 2.960237 512.825623 127 236 138
709.716125 2.564577 713.476379 126 237 137
560.697388 -62.293312 -518.244568 125 236 137
537.508423 -70.741234 -543.462891 124 236 137
-376.062103 -90.448822 -420.504883 144 236 146
-475.533173 -100.199593 -555.510803 159 234 152
-540.715820 -74.574539 -514.383301 156 234 151
-292.344269 -106.278114 -419.408905 142 236 145
-400.321991 -122.440910 -586.279846 159 234 152
-209.252365 -91.585983 -412.184692 141 236 145
-302.281555 -130.447464 -624.301392 161 234 153
-119.486786 -90.945641 -422.522247 139 236 144
-187.317703 -129.941345 -661.601440 162 234 154
-39.332069 -77.709641 -415.104187 138 236 144
-9.934683 -127.879616 -713.618896 163 234 154
43.303711 -66.106850 -419.903778 136 236 143
205.795441 -127.879616 -693.288635 137 235 143
128.608551 -61.841789 -418.493591 135 236 143
296.561005 -127.213394 -659.235840 122 237 137
205.795441 -127.879616 -693.288635 122 237 136
215.841446 -75.075745 -419.140259 134 236 142
364.200836 -121.708458 -631.474365 122 237 137
299.277283 -82.909988 -417.876404 133 236 142
429.735229 -108.283463 -599.630798 123 237 137
587.105530 -47.591839 -466.618408 123 236 137
471.404114 -21.469717 -247.087112 130 236 139
619.591919 -26.659426 -391.658722 122 237 136
464.930023 -2.509620 -165.813736 130 236 139
641.949341 -12.620159 -332.840912 121 237 136
463.401459 42.550976 -74.780495 216 250 228
666.148071 -2.286578 -260.905762 120 237 135
683.213684 -0.072263 -205.774765 120 237 135
612.462646 32.204403 -136.622040 123 237 136
628.665955 19.046926 506.565521 127 237 138
657.245789 11.810499 574.646240 127 237 138
713.315918 18.380413 436.579468 124 237 136
466.401337 4.289311 342.388794 127 236 138
383.340820 2.238841 512.943420 128 236 139
300.923401 -1.482296 508.902863 128 236 139
215.781586 3.860613 508.768890 129 236 140
136.520782 -0.296184 510.517670 129 236 140
42.865768 -0.376682 512.828186 130 236 140
-39.519043 1.004091 513.977783 130 236 140
-123.803444 0.492840 508.076935 131 236 140
-205.586029 -0.906532 509.947601 131 236 140
-292.898590 0.872024 511.651123 131 236 140
-459.310822 3.574463 426.698059 133 236 141
-458.793304 1.141009 341.704315 134 235 141
-459.553009 -0.707466 255.881165 136 235 142
-460.242981 1.826095 169.411057 137 235 142
-465.507416 -1.504038 86.086456 139 235 143
-711.754150 15.100988 20.103645 152 234 149
-460.964355 -2.197175 3.686987 140 235 143
-459.667816 2.283851 -75.604317 141 235 144
-711.754150 15.100988 20.103645 163 233 153
-460.398102 -10.432746 -167.972290 142 235 144
-617.543091 -37.519009 -363.517792 161 233 153
-660.119141 -19.591909 -249.680252 181 251 216
-461.367615 -32.923870 -248.758728 143 235 145
-579.503967 -58.564365 -467.207306 160 234 153
-373.923920 -87.634697 -338.309479 143 236 146
-292.951782 -66.580635 -338.468597 141 236 145
-208.705933 -59.283588 -328.018341 141 236 145
-116.435020 -52.293411 -334.411987 139 236 144
-39.793247 -69.408195 -332.873779 138 236 144
40.828022 -50.227280 -332.710052 136 236 143
130.360367 -37.561661 -334.048126 135 236 143
214.120209 -50.006756 -332.378601 134 236 142
294.868744 -56.194786 -336.336395 133 236 142
-375.803223 -5.832902 423.167572 132 236 141
-376.111328 4.262649 338.939484 133 236 142
-376.082214 -0.983668 381.097778 133 236 142
-372.727844 -1.159214 252.872284 134 236 142
-374.578735 1.190265 295.530731 134 236 142
-380.663971 0.549888 174.382889 135 236 143
-376.396698 -0.147550 213.357224 135 236 143
-376.689423 5.795460 86.039398 136 236 143
-377.958405 3.219693 130.183029 136 236 143
-372.652771 -0.648346 1.378409 137 236 144
-379.044647 -0.103933 -83.966995 138 236 144
-371.913025 -16.231892 -169.566864 140 236 145
-377.782898 -32.063175 -252.673996 141 236 145
-333.095184 -4.869140 424.660767 132 236 141
-333.674469 -6.754340 383.048065 133 236 142
-291.044250 -13.029051 384.430359 133 236 141
-292.109955 -16.475933 342.500397 133 236 141
-334.333282 -5.842178 340.467834 133 236 142
-334.288544 -6.596604 297.541870 134 236 142
-292.582642 -14.815041 300.145203 134 236 141
-293.634521 -15.846433 257.972107 134 236 141
-333.585327 -7.723639 255.609299 134 236 142
-335.668152 -5.026806 213.769958 135 236 143
-294.971405 -7.220297 170.214005 135 236 142
-338.043854 1.279020 172.096817 135 236 143
-336.372925 3.251035 129.543243 136 236 143
-293.552368 0.823118 128.671753 136 236 142
-291.615784 1.168626 86.879204 136 236 142
-334.033539 3.390523 86.680435 136 236 143
-295.097870 6.190570 3.891897 137 236 143
-295.260925 -3.116731 -81.198410 138 236 143
-297.135040 -15.654048 -161.041138 139 236 144
-292.402313 -34.017017 -245.094528 140 236 144
-206.808533 -12.240947 422.300293 132 236 140
-290.220612 -10.387591 427.088135 132 236 140
-250.773148 -13.236967 256.201141 134 236 141
-251.951721 -12.834552 212.927505 135 236 142
-210.301453 -13.903181 170.695190 135 236 142
-252.581100 -14.731354 170.391739 135 236 142
-200.892258 -4.634079 121.751701 136 236 142
-205.161972 -4.068376 93.647858 136 236 142
-250.328003 -0.383775 102.517471 136 236 142
-206.029480 4.758764 6.517581 137 236 143
-207.499283 1.537457 34.426262 137 236 143
-208.538223 -0.986741 -65.292702 138 236 143
-207.419449 0.932857 -46.859211 138 236 143
-212.187485 -15.138094 -156.024902 139 236 144
-215.511536 -10.760085 -114.737305 139 236 144
-207.670181 -36.842567 -242.858200 140 236 144
-124.560738 -13.377529 424.838257 132 236 140
-125.550316 -11.327799 335.003052 133 236 140
-209.346497 -19.796919 342.679230 133 236 141
-124.955688 -14.401890 250.993607 134 236 140
-207.949860 -11.946177 253.667267 134 236 141
-208.685806 -13.108849 211.966629 135 236 142
-181.570648 -12.177410 168.897095 135 236 142
-143.207367 -18.963377 116.758293 136 236 141
-120.468979 -15.524798 111.490501 136 236 141
-120.350098 -13.565993 85.126686 136 236 141
-147.969666 -16.840963 87.685448 136 236 141
-149.476990 -16.030598 30.792635 137 236 142
-119.575539 -11.646071 29.144470 137 236 142
-119.224182 -12.960646 1.402250 137 236 142
-148.826965 -17.824104 3.837695 137 236 142
-150.811295 -25.272221 -51.242336 137 236 142
-120.507118 -17.772106 -55.023857 137 236 142
-120.640663 -13.588399 -84.418320 137 236 142
-152.624084 -18.575878 -78.357582 137 236 142
-155.411530 -9.334497 -129.476379 138 236 143
-122.153534 -13.132869 -138.853745 138 236 143
-122.199020 -13.243080 -167.054672 138 236 143
-152.953690 -13.693437 -162.376770 138 236 143
-122.707382 -42.406094 -249.808960 138 236 143
-40.436062 3.277311 430.252075 131 236 140
-37.347366 -11.513957 342.804504 132 236 140
-35.521133 -15.267848 262.319916 133 236 140
-120.532875 -15.082381 165.045090 135 236 141
-92.306213 -13.685228 168.587219 135 236 141
-25.533966 1.523586 93.580612 135 236 141
-63.669952 -8.645255 89.871849 135 236 141
-37.355591 1.981066 107.819534 135 236 141
-40.174881 -2.450907 7.759287 136 236 142
-65.411835 -12.385725 5.781168 136 236 142
-38.156460 -4.006824 21.846714 136 236 142
-37.103603 -1.284618 -78.304787 136 236 142
-63.599373 -14.426399 -80.754822 136 236 142
-37.519215 -1.307796 -63.998787 136 236 142
-92.670509 -12.338533 -109.829048 137 236 143
-122.204712 -12.014014 -111.304176 137 236 142
-37.950195 -44.516514 -243.266769 137 236 143
-65.802429 -9.927585 -164.030441 137 236 143
-37.745152 -25.926678 -203.323486 137 236 143
44.980824 1.539013 427.525604 131 236 140
42.368244 -0.236928 344.289856 132 236 140
2.302657 -8.310106 261.369781 133 236 140
40.564480 -0.282435 302.057892 132 236 140
39.820412 -1.118805 260.629700 132 236 140
1.941140 -6.334911 217.634995 134 236 141
40.608185 -1.529446 216.649994 133 236 140
41.488941 -2.027883 173.295090 133 236 140
1.660695 -4.072733 174.124527 134 236 141
-38.981796 -5.631917 175.692673 134 236 141
-38.840309 -1.822615 162.100098 134 236 141
-38.029789 -4.245818 78.723236 135 236 141
-17.336399 1.863395 84.920868 135 236 141
1.171030 -3.313534 3.155706 135 236 142
-38.900234 -0.522860 -7.051104 136 236 142
-37.425461 -2.388193 -92.329498 136 236 142
0.974874 -0.898275 -79.267097 135 236 142
1.948663 -18.718637 -206.954712 136 236 143
42.440773 -11.123422 -210.666367 135 236 142
42.048183 -20.605703 -250.751953 135 236 142
1.780381 -32.551399 -247.201431 136 236 143
138.389633 6.907139 423.047852 130 236 140
87.072014 -0.343396 342.540863 132 236 140
87.612068 0.654820 300.893097 132 236 140
134.742310 2.553219 298.548370 131 236 140
136.960403 4.573570 257.405060 131 236 140
87.739479 1.588445 258.661530 132 236 140
86.675163 -0.393778 217.091873 133 236 140
133.436127 1.702432 218.056900 132 236 140
130.547684 -1.273651 177.788010 132 236 140
85.488380 -1.854145 175.535965 133 236 140
86.948883 -0.102943 132.270264 133 236 140
132.446289 -1.061351 133.469894 132 236 140
134.340286 0.108300 88.568878 132 236 140
88.073013 1.106375 88.646210 133 236 140
87.771797 0.464129 44.435772 134 236 141
133.753998 1.588795 45.128830 133 236 141
133.339844 3.153226 2.184128 133 236 141
87.998268 -0.256058 0.612865 134 236 141
86.682350 0.069484 -39.433140 134 236 141
131.971771 1.994375 -39.051388 133 236 141
130.095352 0.309770 -80.552444 133 236 141
85.061348 0.150510 -79.044029 134 236 141
86.879128 -1.593441 -123.657936 135 236 142
131.808640 -1.752836 -122.682648 134 236 142
133.603500 -4.594008 -164.453964 134 236 142
87.996605 -2.909477 -167.761948 135 236 142
86.533791 -11.540265 -209.551132 135 236 142
131.436798 -11.485485 -208.812302 134 236 142
128.535431 -18.614502 -252.952744 134 236 142
85.416428 -19.753212 -252.042389 135 236 142
214.678864 4.169484 423.430664 129 236 140
133.095871 0.011872 339.771179 131 236 140
174.766403 2.865834 339.663269 131 236 140
174.622574 3.612547 297.798859 131 236 140
215.480331 4.683649 296.199554 130 236 140
213.254059 3.901427 252.999908 130 236 140
174.882843 4.115772 255.372238 131 236 140
172.575256 3.137503 213.172791 132 236 140
211.889038 4.605030 208.618805 131 236 140
209.751450 5.309130 164.219604 131 236 140
169.916107 2.249998 171.250809 132 236 140
172.438339 2.262591 128.442535 132 236 140
213.648560 5.291677 124.118523 131 236 140
217.107193 5.044273 83.919884 131 236 140
175.428146 2.466219 86.504593 132 236 140
174.874496 2.428992 44.462151 133 236 141
216.584076 4.068802 42.409946 132 236 140
216.027908 2.184412 0.994742 132 236 140
174.706284 2.595500 1.643301 133 236 141
174.745148 1.831542 -40.364674 133 236 141
217.136307 3.800965 -41.445381 132 236 140
218.528992 2.957047 -84.066544 132 236 140
174.474304 1.728216 -82.269249 133 236 141
174.790405 -2.456272 -123.490410 134 236 142
217.576187 -3.377180 -124.105286 133 236 141
216.909103 -9.090739 -164.409134 133 236 141
175.212585 -6.602181 -164.909973 134 236 142
172.659073 -14.094256 -209.309647 134 236 142
213.880615 -16.358334 -208.022171 133 236 141
210.687531 -23.708206 -252.691010 133 236 141
169.526199 -21.310169 -253.221756 134 236 142
302.764435 -7.492233 428.216614 128 236 139
299.121155 2.388067 341.765015 129 236 139
216.899429 5.631836 340.027588 130 236 140
254.970657 1.816983 254.431244 130 236 140
254.873383 2.567481 212.442719 131 236 140
298.015411 -0.556543 215.387558 130 236 139
298.826630 0.041828 174.627411 130 236 139
253.972672 2.470045 169.809021 131 236 140
256.728455 2.639549 126.515556 131 236 140
300.656616 4.860832 129.524704 130 236 139
302.597992 10.336308 84.096802 130 236 139
259.925415 6.829872 84.358398 131 236 140
258.736603 8.603135 42.127453 132 236 140
299.524628 8.434396 42.011642 131 236 140
297.063232 5.050253 -0.235173 131 236 140
257.227509 5.984418 -0.188063 132 236 140
257.897339 7.906570 -42.193390 132 236 140
298.613251 7.659839 -41.794617 131 236 140
299.702301 5.472377 -83.434280 131 236 140
258.765839 4.749103 -83.867210 132 236 140
259.435913 -3.960552 -124.219780 133 236 141
300.950348 -2.992657 -123.689377 132 236 141
303.098816 -12.526144 -164.754593 132 236 141
260.251190 -11.256454 -164.594391 133 236 141
300.812866 -30.515976 -250.342743 132 236 141
382.948029 2.470386 423.510376 128 236 139
382.951019 -1.458511 343.950226 128 236 139
384.044128 6.587762 265.052368 128 236 139
296.854156 -0.891834 255.553345 129 236 139
340.443939 6.133435 173.601349 130 236 139
342.672272 20.848398 129.694427 194 236 205
384.241669 35.407188 130.445328 230 249 240
386.473663 41.841267 87.951134 224 249 235
344.552185 25.803947 85.576134 196 244 209
342.275146 18.125153 44.372150 158 239 166
385.468048 30.774820 50.482704 232 248 238
396.289307 38.138248 21.244822 231 249 243
340.223877 13.455656 3.494255 131 236 140
370.422424 46.597462 -7.005247 237 249 243
415.210876 74.164284 22.535465 249 253 251
386.103333 48.601910 -30.027679 231 249 243
337.961823 12.262406 -82.898972 131 236 140
379.360321 -4.019796 -167.459045 131 236 140
382.907379 -18.769968 -251.310150 131 236 140
477.420776 55.842461 280.086975 184 253 195
384.044128 6.587762 265.052368 129 236 140
460.148865 36.052612 181.764160 223 249 231
381.305634 18.956064 172.962143 168 240 178
460.854828 47.543751 218.721710 230 251 239
418.653564 63.836315 89.195244 238 249 244
476.371765 102.506973 91.968887 244 251 249
430.833618 67.903595 71.747406 237 248 244
464.691589 47.927025 34.369598 237 254 249
408.238220 56.297665 21.738707 228 248 239
378.614807 22.384352 -81.604179 130 236 139
42.360088 -3.893377 -0.275155 134 236 141
41.221466 -1.798628 -39.893230 134 236 141
2.481706 -2.821729 -38.652733 135 236 142
-92.204567 -10.357241 -83.146980 137 236 142
404.001770 -362.934814 556.060242 232 213 222
0.000063 -362.934814 687.328552 246 196 220
653.689148 -2.982201 -212.393280 192 231 255
404.001770 -2.982201 -556.060364 192 231 255
404.001770 -362.934814 -556.060364 192 231 255
653.689148 -362.934814 -212.393280 192 231 255
653.689148 -2.982201 212.393143 220 231 227
653.689148 -362.934814 212.393143 220 231 227
-404.001770 -362.934814 556.060364 231 203 228
-653.689148 -2.982201 -212.393143 192 231 255
-653.689148 -362.934814 212.393280 225 231 222
-653.689148 -362.934814 -212.393143 192 231 255
0.406706 -2.750403 -687.140076 192 231 255
-0.000057 -362.934814 -687.328552 192 231 255
-403.398987 -4.007098 -556.833740 192 231 255
-404.001770 -362.934814 -556.060242 192 231 255
-214.321808 -63.568821 -651.313477 192 231 255
-660.119141 -19.591909 -249.680252 181 251 213
-37.641441 -8.048225 -162.812317 137 236 143
-65.621284 -7.580919 -136.399887 137 236 143
-37.620464 -7.034712 -148.316208 137 236 143
-64.807800 -8.811635 -108.494614 137 236 143
-38.113552 -6.052946 -134.572662 137 236 143
-37.625633 -4.783325 -120.396629 137 236 143
-37.657604 -3.797892 -106.420357 136 236 142
1.942419 -2.056715 -24.730040 135 236 142
1.544711 -3.787236 -10.502026 135 236 142
-40.585930 -3.665027 33.763309 136 236 142
-43.984081 -4.575262 33.940563 136 236 142
-44.750141 -5.143998 34.949562 136 236 142
-24.133177 -3.328958 48.347851 136 236 142
1.749666 0.746752 47.399113 135 236 142
1.491357 -2.181614 17.743662 135 236 142
-31.006418 -1.884322 33.600502 136 236 142
-35.503029 -3.319726 41.840630 136 236 142
-29.888815 -2.953798 44.965691 136 236 142
-41.055237 3.722918 117.966309 135 236 141
1.951190 3.283145 105.920082 134 236 141
1.366808 1.282132 132.883133 134 236 141
-37.781273 -1.529308 132.235580 135 236 141
-94.007301 -13.560012 -165.453781 138 236 143
-93.617889 -10.722677 -137.949677 137 236 143
-92.649467 -5.791429 -54.399876 137 236 142
-64.210411 -11.390450 -52.438560 136 236 142
-92.192116 -6.143109 3.511974 137 236 142
-92.390030 -5.428630 -25.873209 137 236 142
-120.133598 -12.998188 -26.923613 137 236 142
-64.648399 -11.897943 -23.311462 136 236 142
-39.372704 -1.552082 -19.801588 136 236 142
-37.866405 -1.285624 -49.695927 136 236 142
-38.604397 -2.434190 -35.182991 136 236 142
-91.986649 -5.526367 31.827814 137 236 142
-64.832733 -13.302452 26.005936 136 236 142
-90.847588 -9.564178 87.335541 136 236 141
-91.676262 -6.162961 59.428696 136 236 141
-119.985733 -10.471516 56.791798 136 236 141
-64.026680 -9.914523 62.165951 135 236 141
-36.962250 -4.916411 60.780819 135 236 141
-90.240501 -15.311983 113.986946 136 236 141
-71.899498 -4.655001 116.832268 135 236 141
-91.483353 -13.493229 140.660294 135 236 141
-120.000069 -14.632064 138.053391 135 236 141
-65.033562 -13.855944 171.854370 134 236 141
-64.906067 -6.592868 144.777405 134 236 141
-40.267513 -0.541981 151.342255 134 236 141
-36.891026 -10.428293 218.876770 134 236 141
-184.101196 -15.076180 -156.176041 139 236 144
-193.300247 -10.642785 -113.261063 139 236 144
-200.560867 -5.307374 -79.763466 138 236 143
-217.207169 -5.816006 -82.467476 138 236 143
-193.709702 -4.088255 -73.815834 138 236 143
-156.128311 -15.867769 -88.026794 137 236 142
-180.813171 -8.495829 -95.702377 138 236 143
-176.932144 -7.076638 -85.178772 138 236 143
-159.571182 -12.975368 -98.083420 137 236 142
-178.704834 -1.797614 -50.397915 138 236 143
-186.811203 -2.568911 -68.298706 138 236 143
-170.284546 -6.443070 -73.549667 138 236 143
-177.374008 2.656157 4.337766 137 236 143
-177.992996 1.108913 -23.287132 137 236 143
-206.971909 2.564365 -20.273193 137 236 143
-150.129395 -20.415941 -23.636318 137 236 142
-178.582687 -0.692955 32.546101 137 236 143
-170.051102 -6.026610 94.226196 136 236 142
-179.018051 -3.124046 60.507236 136 236 142
-208.324966 -0.988393 62.331867 136 236 142
-149.865921 -14.298162 58.200996 136 236 141
-161.054916 -6.963286 125.555878 136 236 142
-173.380798 -15.950135 147.262192 135 236 142
-208.354675 -13.022381 144.908447 135 236 142
-203.801682 -9.073573 134.069153 136 236 142
-149.668915 -10.720539 167.000931 135 236 141
-146.801056 -15.563035 142.063522 135 236 141
-253.320251 -12.346025 157.169342 135 236 142
-252.064194 -3.254452 129.778976 136 236 142
-44.590191 -5.148485 42.654316 136 236 142
-54.241859 -7.845803 52.116661 136 236 142
1.245922 0.042616 160.956833 134 236 141
41.868107 -0.086881 131.382217 133 236 140
42.439732 2.338911 88.675575 133 236 140
3.234847 4.069483 91.168274 134 236 141
10.844983 4.357475 76.858688 134 236 141
-13.446740 1.390501 68.668861 135 236 141
42.447544 -0.465903 44.467152 134 236 141
1.504482 -3.282849 -120.947227 136 236 142
2.437123 -5.194328 -166.296967 136 236 143
39.433208 0.309336 -79.471443 134 236 141
40.751591 -0.994731 -125.268616 135 236 142
42.178822 -1.721047 -170.061111 135 236 142
427.889587 59.596535 -26.209930 234 252 246
415.210876 74.164284 22.535465 255 255 255
464.691589 47.927025 34.369598 238 255 250
466.624359 55.886223 51.595257 242 249 251
430.356232 69.387253 111.192505 228 245 240
468.860077 69.140686 146.010529 244 249 248
340.777435 18.862595 -35.274330 131 236 140
340.443939 6.133435 173.601349 131 236 140
-13.970529 1.586034 77.789032 135 236 141
-41.965717 -5.632210 48.828083 136 236 142
-40.039459 -4.263793 42.331112 136 236 142
-44.019855 -6.763404 55.367615 136 236 142
-572.042114 -8.337647 185.864594 214 253 246
-571.785522 -9.181246 -166.921371 214 253 246
-684.581543 10.056082 -203.835785 236 253 250
-721.853516 9.380119 234.540817 214 253 246
-353.540985 -8.337647 486.607330 222 255 243
-572.042114 -8.337647 185.864594 222 255 243
-721.853516 9.380119 234.540817 222 255 243
-446.129700 -10.417173 614.044434 222 255 243
0.000039 -8.337647 601.479797 222 255 243
0.000057 -10.417173 759.000732 222 255 243
353.541107 -8.337647 486.607147 222 255 243
446.129700 -10.417173 614.044189 222 255 243
572.042114 -8.337647 185.864487 222 255 243
683.416870 -25.250221 222.052002 222 255 243
572.042053 -8.337647 -185.864700 222 255 243
683.416809 10.610418 -222.052261 222 255 243
353.541046 -8.337647 -486.607361 214 253 246
572.042053 -8.337647 -185.864700 214 253 246
683.416809 10.610418 -222.052261 214 253 246
422.374512 10.610420 -581.348328 234 253 249
-331.624329 -8.337647 -493.566498 214 253 246
-19.526972 -8.337641 -592.667908 214 253 246
-19.526997 10.610421 -709.774292 244 253 253
-395.930084 10.005662 -582.727722 245 253 253
-544.983765 -7.368224 -223.260010 214 253 246
-371.467102 -8.337645 -461.933868 214 253 246
-443.450653 14.704031 -552.339111 245 253 253
-652.442078 12.218153 -264.875763 237 253 250
-293.928925 -18.531317 214.175400 135 236 142
477.420776 55.842461 280.086975 190 255 201
546.990356 8.277164 411.133759 129 238 140
575.812988 16.119184 414.025055 127 237 138
515.847778 45.128246 141.472900 250 255 250
548.865051 29.381727 297.393494 127 236 138
486.212402 54.112690 178.721176 128 236 138
574.914673 26.234575 366.861206 127 236 138
500.237946 76.825226 213.643600 244 250 251
462.735016 46.965096 171.900650 244 255 248
486.212402 54.112690 178.721176 155 240 163
462.101349 41.007462 252.401245 213 254 224
520.621338 17.437794 320.618652 196 254 207
575.812988 16.119184 414.025055 133 243 144
462.101349 41.007462 252.401245 214 255 225
520.621338 17.437794 320.618652 197 255 208
520.621338 17.437794 320.618652 127 236 138
546.990356 8.277164 411.133759 127 236 138
630.242310 0.757635 560.681458 127 237 138
602.312866 31.450394 436.713501 127 237 138
521.299500 56.865025 228.807266 128 236 138
515.847778 45.128246 141.472900 251 255 251
684.967224 8.230555 643.289551 127 237 138
481.533722 86.799683 71.257523 235 253 241
464.691589 47.927025 34.369598 236 254 248
539.216797 54.831837 -62.252968 236 254 250
539.216797 54.831837 -62.252968 237 254 250
503.146912 70.376968 44.840195 236 254 249
692.490540 2.353511 -178.467224 120 237 135
539.216797 54.831837 -62.252968 126 236 137
709.637146 14.106705 -122.396576 119 237 135
503.146912 70.376968 44.840195 236 254 248
481.533722 86.799683 71.257523 226 254 229
710.816528 94.768776 156.614761 255 255 255
481.533722 86.799683 71.257523 241 255 251
515.847778 45.128246 141.472900 255 255 255
521.299500 56.865025 228.807266 190 244 195
701.329224 7.285085 -149.945297 119 237 135
709.637146 14.106705 -122.396576 255 255 255
477.420776 55.842461 280.086975 173 249 184
486.212402 54.112690 178.721176 235 251 236
521.299500 56.865025 228.807266 250 251 250
515.847778 45.128246 141.472900 250 253 250
33.649132 -8.337647 -590.546692 214 253 246
35.025768 10.610416 -707.205750 243 253 253
-681.165833 9.495376 -214.652451 236 253 250
-569.088745 -9.831066 -177.963898 214 253 246
-562.906067 -9.585457 -197.256882 214 253 246
-673.535950 9.776331 -235.360535 237 253 250
-353.540985 -8.337647 486.607330 214 253 246
0.000039 -8.337647 601.479797 214 253 246
353.541107 -8.337647 486.607147 214 253 246
572.042114 -8.337647 185.864487 214 253 246
4 0 1 2 3
3 4 5 6
3 7 5 8
3 4 6 9
3 4 9 10
3 4 10 11
3 7 8 12
3 13 14 15
3 16 17 18
3 19 20 21
3 22 23 24
3 7 25 26
3 13 15 27
3 16 18 28
3 29 20 30
3 22 24 31
3 29 24 32
3 23 20 32
3 21 33 28
3 33 16 28
3 18 17 27
3 17 13 27
3 15 14 26
3 14 7 26
3 34 8 31
3 8 22 31
3 11 23 22
3 23 11 35
3 10 20 35
3 36 33 20
3 10 9 36
3 9 16 33
3 9 17 16
3 9 6 17
3 6 13 17
3 8 11 22
3 8 5 11
3 5 4 11
3 6 14 13
3 6 5 14
3 5 7 14
3 37 38 39
3 40 41 42
3 37 39 43
3 37 43 44
3 37 44 45
3 40 42 46
3 47 48 49
3 50 51 52
3 53 54 55
3 56 57 58
3 40 46 59
3 47 49 60
3 50 52 61
3 53 55 62
3 56 58 63
3 64 65 66
3 67 68 69
3 70 71 72
3 73 74 75
3 76 77 78
3 79 80 81
3 82 83 79
3 78 84 82
3 79 83 80
3 83 85 80
3 82 84 83
3 84 86 83
3 83 86 85
3 86 75 85
3 78 77 84
3 77 87 84
3 84 87 86
3 87 88 86
3 86 88 75
3 88 73 75
3 80 89 81
3 85 90 80
3 75 91 85
3 80 90 89
3 90 92 89
3 85 91 90
3 91 93 90
3 90 93 92
3 93 72 92
3 75 74 91
3 74 94 91
3 91 94 93
3 94 95 93
3 93 95 72
3 95 70 72
3 89 96 81
3 92 97 89
3 72 98 92
3 89 97 96
3 97 99 96
3 92 98 97
3 98 100 97
3 97 100 99
3 100 69 99
3 72 71 98
3 71 101 98
3 98 101 100
3 101 102 100
3 100 102 69
3 102 67 69
3 96 103 81
3 99 104 96
3 69 105 99
3 96 104 103
3 104 106 103
3 99 105 104
3 105 107 104
3 104 107 106
3 107 66 106
3 69 68 105
3 68 108 105
3 105 108 107
3 108 109 107
3 107 109 66
3 109 64 66
3 103 79 81
3 106 110 103
3 66 111 106
3 103 110 79
3 110 82 79
3 106 111 110
3 111 112 110
3 110 112 82
3 112 78 82
3 66 65 111
3 65 113 111
3 111 113 112
3 113 114 112
3 112 114 78
3 114 76 78
3 115 77 76
3 116 117 115
3 63 118 116
3 115 117 77
3 117 87 77
3 116 118 117
3 118 119 117
3 117 119 87
3 119 88 87
3 63 58 118
3 58 120 118
3 118 120 119
3 120 121 119
3 119 121 88
3 121 73 88
3 122 74 73
3 123 124 122
3 62 125 123
3 122 124 74
3 124 94 74
3 123 125 124
3 125 126 124
3 124 126 94
3 126 95 94
3 62 55 125
3 55 127 125
3 125 127 126
3 127 128 126
3 126 128 95
3 128 70 95
3 129 71 70
3 130 131 129
3 61 132 130
3 129 131 71
3 131 101 71
3 130 132 131
3 132 133 131
3 131 133 101
3 133 102 101
3 61 52 132
3 52 134 132
3 132 134 133
3 134 135 133
3 133 135 102
3 135 67 102
3 136 68 67
3 137 138 136
3 60 139 137
3 136 138 68
3 138 108 68
3 137 139 138
3 139 140 138
3 138 140 108
3 140 109 108
3 60 49 139
3 49 141 139
3 139 141 140
3 141 142 140
3 140 142 109
3 142 64 109
3 143 65 64
3 144 145 143
3 59 146 144
3 143 145 65
3 145 113 65
3 144 146 145
3 146 147 145
3 145 147 113
3 147 114 113
3 59 46 146
3 46 148 146
3 146 148 147
3 148 149 147
3 147 149 114
3 149 76 114
3 121 122 73
3 120 150 121
3 58 151 120
3 121 150 122
3 150 123 122
3 120 151 150
3 151 152 150
3 150 152 123
3 152 62 123
3 58 57 151
3 57 153 151
3 151 153 152
3 153 154 152
3 152 154 62
3 154 53 62
3 128 129 70
3 127 155 128
3 55 156 127
3 128 155 129
3 155 130 129
3 127 156 155
3 156 157 155
3 155 157 130
3 157 61 130
3 55 54 156
3 54 158 156
3 156 158 157
3 158 159 157
3 157 159 61
3 159 50 61
3 135 136 67
3 134 160 135
3 52 161 134
3 135 160 136
3 160 137 136
3 134 161 160
3 161 162 160
3 160 162 137
3 162 60 137
3 52 51 161
3 51 163 161
3 161 163 162
3 163 164 162
3 162 164 60
3 164 47 60
3 142 143 64
3 141 165 142
3 49 166 141
3 142 165 143
3 165 144 143
3 141 166 165
3 166 167 165
3 165 167 144
3 167 59 144
3 49 48 166
3 48 168 166
3 166 168 167
3 168 169 167
3 167 169 59
3 169 40 59
3 149 115 76
3 148 170 149
3 46 171 148
3 149 170 115
3 170 116 115
3 148 171 170
3 171 172 170
3 170 172 116
3 172 63 116
3 46 42 171
3 42 173 171
3 171 173 172
3 173 174 172
3 172 174 63
3 174 56 63
3 175 57 56
3 176 177 175
3 45 178 176
3 175 177 57
3 177 153 57
3 176 178 177
3 178 179 177
3 177 179 153
3 179 154 153
3 45 44 178
3 44 180 178
3 178 180 179
3 180 181 179
3 179 181 154
3 181 53 154
3 181 54 53
3 180 182 181
3 44 183 180
3 181 182 54
3 182 158 54
3 180 183 182
3 183 184 182
3 182 184 158
3 184 159 158
3 44 43 183
3 43 185 183
3 183 185 184
3 185 186 184
3 184 186 159
3 186 50 159
3 186 51 50
3 185 187 186
3 43 188 185
3 186 187 51
3 187 163 51
3 185 188 187
3 188 189 187
3 187 189 163
3 189 164 163
3 43 39 188
3 39 190 188
3 188 190 189
3 190 191 189
3 189 191 164
3 191 47 164
3 174 175 56
3 173 192 174
3 42 193 173
3 174 192 175
3 192 176 175
3 173 193 192
3 193 194 192
3 192 194 176
3 194 45 176
3 42 41 193
3 41 195 193
3 193 195 194
3 195 38 194
3 194 38 45
3 38 37 45
3 191 48 47
3 190 196 191
3 39 197 190
3 191 196 48
3 196 168 48
3 190 197 196
3 197 198 196
3 196 198 168
3 198 169 168
3 39 38 197
3 38 195 197
3 197 195 198
3 195 41 198
3 198 41 169
3 41 40 169
3 199 200 201
3 202 203 204
3 205 206 207
4 3 2 208 209
4 200 210 211 212
4 210 213 214 211
4 213 215 216 214
4 215 217 218 216
4 217 219 220 218
4 219 221 222 220
4 221 223 224 225
4 223 226 227 224
4 226 228 229 227
4 228 3 209 229
4 2 1 230 208
4 1 231 232 230
4 231 233 234 232
4 233 235 236 234
3 237 236 238
3 239 240 241
3 242 205 207
3 206 243 207
3 243 244 207
3 244 245 207
3 245 246 207
3 246 247 207
4 204 207 247 248
3 248 249 204
3 249 250 204
3 250 251 204
3 251 202 204
3 203 252 204
3 252 253 204
3 253 254 204
3 254 255 204
3 255 256 204
4 257 204 256 258
3 259 260 258
4 259 261 262 263
4 261 264 265 262
4 199 266 210 200
4 266 267 213 210
4 267 268 215 213
4 268 269 217 215
4 269 270 219 217
4 270 271 221 219
4 271 272 223 221
4 272 273 226 223
4 273 274 228 226
4 274 0 3 228
4 203 202 275 252
3 276 253 277
3 278 254 279
3 280 255 281
3 282 256 283
4 256 282 284 258
4 258 284 285 259
4 259 285 286 261
4 261 286 287 264
4 264 287 266 199
3 275 202 288
4 289 290 291 292
4 293 294 295 296
3 297 298 299
4 300 301 302 303
3 303 302 304
4 284 304 305 285
4 285 305 306 286
4 286 306 307 287
4 287 307 267 266
4 251 250 308 309
3 309 308 290
3 294 310 295
3 311 312 313
3 314 315 316
3 317 304 318
3 319 305 320
3 321 306 322
4 306 321 323 307
4 307 323 268 267
4 250 249 324 308
4 308 324 325 326
4 326 325 327 328
3 329 328 330
4 331 332 333 334
4 335 336 337 338
4 339 340 341 342
4 343 344 345 346
3 346 345 347
4 323 347 269 268
4 249 248 348 324
4 324 348 349 325
4 325 349 350 327
3 351 327 352
3 353 354 355
3 356 357 358
3 359 360 361
3 341 362 363
3 364 365 366
4 347 364 270 269
4 248 247 367 348
4 348 367 368 349
3 369 370 371
4 372 373 374 375
3 376 375 377
3 378 353 379
3 356 380 381
3 382 359 383
4 384 385 386 387
3 387 386 271
4 247 246 388 367
3 368 367 389
4 390 391 392 393
4 394 395 396 397
4 398 399 400 401
4 402 403 404 405
4 406 407 408 409
4 410 411 412 413
4 414 415 416 417
3 417 416 272
4 246 245 418 388
3 419 388 420
4 421 422 423 424
4 425 426 427 428
4 429 430 431 432
4 433 434 435 436
4 437 438 439 440
4 441 442 443 444
4 445 446 447 448
3 448 447 273
4 245 244 449 418
4 418 449 450 451
3 422 452 423
4 453 454 455 456
4 457 458 459 460
4 461 462 463 464
4 465 466 467 468
4 469 470 471 472
3 443 472 446
4 447 473 274 273
4 244 243 474 449
4 449 474 475 450
4 450 475 476 477
3 454 478 455
4 479 480 481 482
4 483 484 485 486
3 487 488 489
3 467 490 470
4 471 491 492 473
4 473 492 0 274
4 243 206 205 474
4 474 205 242 475
3 475 493 494
3 495 496 497
3 496 495 480
3 498 499 500
3 485 501 502
4 503 235 233 491
4 491 233 231 492
4 492 231 1 0
3 504 505 506
3 341 507 362
3 264 199 201
4 15 26 508 509
4 510 511 512 513
4 514 510 513 515
4 27 15 509 516
4 517 18 518 519
4 511 520 521 512
4 522 517 519 523
3 524 522 523
4 18 27 516 518
3 265 264 201
4 26 514 515 508
3 200 212 201
3 259 525 260
3 526 527 528
3 362 529 527
3 527 529 530
3 530 529 531
3 362 507 529
3 507 360 529
3 529 360 532
3 532 360 382
3 532 382 383
3 504 506 533
3 504 533 534
3 535 536 537
3 538 539 540
3 540 541 542
3 543 538 540
3 540 542 543
3 544 545 355
4 546 545 544 547
3 345 548 347
4 548 365 364 347
3 344 548 345
3 363 549 344
3 344 549 548
3 549 365 548
3 363 362 549
3 362 527 549
3 549 527 365
3 527 526 365
4 340 550 507 341
4 550 551 360 507
4 337 552 553 554
4 554 553 550 340
4 552 357 555 553
4 553 555 551 550
3 556 555 381
3 557 551 558
4 336 559 552 337
4 559 560 357 552
4 333 561 562 563
4 563 562 559 336
4 561 354 564 562
4 562 564 560 559
3 565 564 378
4 332 566 561 333
4 566 567 354 561
4 351 352 568 569
4 569 568 566 332
4 352 570 571 568
4 568 571 567 566
3 572 571 377
3 544 567 547
3 573 376 570
4 327 350 570 352
3 321 574 323
4 574 346 347 323
4 322 575 574 321
4 575 343 346 574
3 576 577 578
4 577 576 575 322
3 579 580 581
3 582 575 580
3 342 341 579
4 582 363 344 343
4 320 583 584 319
3 584 583 585
4 317 586 587 588
4 588 587 583 320
4 586 338 589 587
4 587 589 339 583
4 338 337 554 589
4 589 554 340 339
4 318 590 586 317
4 590 335 338 586
4 315 591 592 593
4 593 592 590 318
4 591 334 594 592
4 592 594 335 590
4 334 333 563 594
4 594 563 336 335
4 314 595 591 315
4 595 331 334 591
4 312 330 596 597
3 597 596 598
4 330 599 600 596
4 596 600 331 595
4 599 351 569 600
4 600 569 332 331
3 327 351 599
4 328 327 599 330
3 305 319 577
4 306 305 577 322
3 304 317 588
4 305 304 588 320
3 302 315 593
4 304 302 593 318
3 312 601 313
4 602 601 597 598
3 350 573 570
3 571 572 547
3 567 571 547
3 570 376 377
3 571 570 377
3 603 537 604
3 354 353 378
3 564 354 378
3 555 556 558
3 551 555 558
3 357 356 381
3 555 357 381
4 605 546 547 572
4 374 606 546 605
4 606 607 545 546
3 355 608 353
3 355 545 608
3 545 607 608
3 609 539 610
4 607 611 539 609
4 611 504 540 539
3 358 380 356
3 358 540 380
3 540 504 380
3 534 558 556
3 534 533 558
3 533 557 558
3 533 361 557
3 533 506 361
3 506 359 361
3 532 383 612
3 613 526 528
3 531 532 612
3 614 615 612
3 360 359 382
3 529 532 531
3 527 530 528
3 612 615 613
3 615 616 613
3 506 383 359
3 506 505 383
3 505 614 383
3 235 489 617
3 618 619 617
3 484 501 485
3 620 501 484
3 621 499 498
3 480 622 621
4 490 503 471 470
3 503 491 471
4 466 623 490 467
4 463 486 623 466
3 487 502 488
4 462 483 486 463
4 459 482 483 462
4 482 481 484 483
4 458 479 482 459
4 455 478 479 458
4 624 496 480 479
4 454 477 496 478
3 477 476 496
4 472 471 447 446
3 471 473 447
4 442 469 472 443
4 439 468 469 442
4 468 467 470 469
4 438 465 468 439
4 435 464 465 438
4 464 463 466 465
4 434 461 464 435
4 431 460 461 434
4 460 459 462 461
4 430 457 460 431
4 427 456 457 430
4 456 455 458 457
4 426 453 456 427
4 423 452 453 426
4 452 477 454 453
4 422 451 477 452
3 451 450 477
3 416 448 272
3 272 448 273
4 415 445 448 416
4 412 444 445 415
4 444 443 446 445
4 411 441 444 412
4 408 440 441 411
4 440 439 442 441
4 407 437 440 408
4 404 436 437 407
4 436 435 438 437
4 403 433 436 404
4 400 432 433 403
4 432 431 434 433
4 399 429 432 400
4 396 428 429 399
4 428 427 430 429
4 395 425 428 396
4 392 424 425 395
4 424 423 426 425
4 391 421 424 392
4 419 420 421 391
4 420 451 422 421
3 418 451 420
3 388 418 420
3 386 417 271
3 271 417 272
4 385 414 417 386
4 616 413 414 385
4 413 412 415 414
4 615 410 413 616
4 614 409 410 615
4 409 408 411 410
4 505 406 409 614
4 504 405 406 505
4 405 404 407 406
4 611 402 405 504
4 607 401 402 611
4 401 400 403 402
4 606 398 401 607
4 374 397 398 606
4 397 396 399 398
4 373 394 397 374
4 371 393 394 373
4 393 392 395 394
4 370 390 393 371
4 368 389 390 370
4 389 419 391 390
3 388 419 389
3 367 388 389
3 364 387 270
3 270 387 271
4 366 384 387 364
4 526 613 384 366
4 613 616 385 384
3 612 613 528
3 530 531 612
3 528 530 612
3 381 534 556
3 381 380 534
3 380 504 534
3 625 609 610
3 379 608 625
3 608 607 609
3 377 605 572
3 377 375 605
3 375 374 605
4 573 372 375 376
4 350 369 372 573
4 369 371 373 372
4 368 370 369 350
3 349 368 350
3 365 526 366
3 551 557 361
3 360 551 361
3 537 603 535
3 567 544 355
3 354 567 355
4 626 543 542 627
3 627 542 535
4 537 536 357 560
3 542 541 535
4 536 535 358 357
4 535 541 540 358
3 603 627 535
4 604 626 627 603
4 628 538 543 626
3 560 564 604
3 537 560 604
3 565 538 628
3 628 626 604
3 604 565 628
3 604 564 565
3 608 609 625
4 378 625 610 565
3 610 538 565
3 539 538 610
3 378 379 625
3 353 608 379
4 629 630 631 632
4 633 634 635 636
4 637 633 636 638
4 639 637 638 640
4 641 639 640 642
4 643 641 642 644
4 645 646 647 648
4 649 650 651 652
4 653 654 655 656
3 582 343 575
3 339 342 585
3 583 339 585
3 579 363 582
3 341 363 579
3 575 576 580
3 578 580 576
3 584 581 578
4 585 342 579 581
3 319 584 578
3 577 319 578
3 578 581 580
3 584 585 581
3 579 582 580
3 383 614 612
4 316 602 598 314
4 302 301 602 316
4 301 298 601 602
3 298 313 601
3 598 595 314
3 596 595 598
3 312 329 330
3 315 302 316
3 657 313 298
3 310 657 295
4 310 328 329 311
4 294 291 328 310
3 291 326 328
3 290 326 291
3 308 326 290
3 282 303 284
3 284 303 304
4 283 300 303 282
4 280 299 300 283
4 299 298 301 300
4 281 297 299 280
4 278 296 297 281
3 296 657 297
4 279 293 296 278
4 276 292 293 279
4 292 291 294 293
4 277 289 292 276
4 275 288 289 277
4 288 309 290 289
3 251 309 288
3 202 251 288
3 255 280 283
3 256 255 283
3 254 278 281
3 255 254 281
3 253 276 279
3 254 253 279
3 252 275 277
3 253 252 277
3 297 657 298
3 311 329 312
3 312 597 601
3 657 311 313
3 310 311 657
3 296 295 657
3 520 524 521
3 521 524 523
3 9 33 36
3 10 36 20
3 20 23 35
3 11 10 35
3 19 21 28
3 20 29 32
3 24 23 32
3 20 19 30
3 20 33 21
3 658 242 659
3 239 660 240
3 499 622 661
3 662 663 664
4 495 497 665 666
3 666 667 622
4 497 668 669 665
4 665 669 670 667
4 671 658 659 672
4 673 674 675 660
3 242 207 675
3 242 675 674
3 495 666 480
3 666 622 480
3 494 493 668
4 496 494 668 497
3 660 239 676
4 663 660 676 664
3 663 662 677
3 667 678 622
3 675 207 679
4 660 675 679 240
3 499 680 500
3 680 620 484
3 235 681 682
4 236 235 682 238
3 683 501 620
3 680 499 661
3 683 620 684
3 685 237 238
3 238 686 687
3 688 689 690
3 691 692 690
3 678 693 690
3 662 664 690
3 664 676 241
3 690 664 241
3 693 662 690
3 685 238 694
3 686 690 695
3 687 694 238
3 207 241 679
3 679 241 240
3 676 239 241
4 485 502 487 623
3 486 485 623
3 619 235 617
3 488 617 489
3 501 488 502
4 623 487 489 503
3 490 623 503
3 680 484 500
3 622 499 621
4 480 621 498 481
4 481 498 500 484
3 475 242 696
3 682 688 690
3 620 680 684
3 697 698 699
3 666 665 667
3 235 503 489
4 651 650 700 701
4 700 645 648 701
4 655 654 649 652
4 702 703 704 705
4 705 704 653 656
4 631 630 703 702
3 630 629 706
3 706 707 708
3 708 709 646
3 646 645 700
3 700 650 649
3 649 654 653
3 653 704 703
3 703 630 706
3 706 708 646
3 646 700 649
3 649 653 703
3 703 706 646
3 646 649 703
